# xmcd
#
# Track frame offsets:
#	150
#	17331
#	31701
#	44554
#	57926
#	74280
#	89752
#	100219
#	114587
#	127437
#	139162
#	152433
#	180357
#	202155
#	213106
#	228962
#
# Disc length: 3211 seconds
#
# Revision: 0
# Processed by: cddbd v1.5.2PL0 Copyright (c) Steve Scherf et al.
# Submitted via: EasyCDDAExtractor 16.0.6.1
#
DISCID=dd0c8910
DTITLE=Συλλογικός δίσκος - Οι μεγαλύτερες επιτυχίες του-Γ. Μαρκόπουλος
DYEAR=2002
DGENRE=Έντεχνη λαϊκή
TTITLE0=Ξυλούρης Νίκος - Μπήκαν στην πόλη οι οχτροί [στ. Γ. Σκούρτης]
TTITLE1=Λαβίνα Βασιλική - Παραπονεμένα λόγια [στ. Μ. Ελευθερίου]
TTITLE2=Μοσχολιού Βίκυ - Μιλώ για τα παιδιά μου [στ. Γ. Σκούρτης]
TTITLE3=Χαλκιάς Λάκης - Εδώ στην ξένη χώρα [στ. Γ. Σκούρτης]
TTITLE4=Μοσχολιού Βίκυ - Πέρα από τη θάλασσα [στ. Ερρίκος Θαλασσινός]
TTITLE5=Αλεξάνδρα - Η Ρομπινσόνα [στ. Μιχ. Κατσαρός]
TTITLE6=Μαρινέλλα - Τα παλληκάρια [στ. Άκος Δασκαλόπουλος]
TTITLE7=Μοσχολιού Βίκυ - Η Ρόζα η ναζιάρα [στ. Μ. Φακίνος]
TTITLE8=Λαβίνα Βασιλική - Τραγουδώ, τραγουδώ [στ. Γ. Σκούρτης]
TTITLE9=Κλωναρίδης Ηλίας - Η μάννα του Αλέξανδρου [στ. Π. Θεοδωρίδης]
TTITLE10=Ανδρεάδης Θέμης - Του άντρα του πολλά βαρύ [στ. Ερρίκος Θαλασσινός]
TTITLE11=Μαρκόπουλος Γιάννης - Η Ελλάδα (Λένγκω) [στ. Γιάννης Μαρκόπουλος]
TTITLE12=Γαργανουράκης Χαράλαμπος - Τα λόγια και τα χρόνια [στ. Μ. Ελευθερίου]
TTITLE13=Ξυλούρης Νίκος - Το καφενείον ''Η Ελλάς'' [στ. Κ. Χ. Μύρης]
TTITLE14=Ανδρεάδης Θέμης - Ο Ταρζάν [στ. Γιάννης Μαρκόπουλος]
TTITLE15=Άνευ ερμηνευτού - Who pays the ferryman (Ο βαρκάρης) [ορχηστρικό]
EXTD=
EXTT0=
EXTT1=
EXTT2=
EXTT3=
EXTT4=
EXTT5=
EXTT6=
EXTT7=
EXTT8=
EXTT9=
EXTT10=
EXTT11=
EXTT12=
EXTT13=
EXTT14=
EXTT15=
PLAYORDER=
